<svg
  xmlns="http://www.w3.org/2000/svg"
  width="32"
  height="32"
  viewBox="0 0 48 48"
>
  <style>
    path {
      fill: #1f1deb;
    }
    @media (prefers-color-scheme: dark) {
      path {
        fill: #5f5dff;
      }
    }
  </style>
  <path
    id="wheel"
    d="M24,24a9,9,0,0,1-9-8h4.5c0.5,2.3,2.3,3.5,4.5,3.5s4-1.2,4.5-3.5H33A9,9,0,0,1,24,24m0-18a9,9,0,0,1,9,8h-4.5c-0.5-2.3-2.3-3.5-4.5-3.5s-4,1.2-4.5,3.5H15a9,9,0,0,1,9-8m0-2a11,11,0,1,0,11,11A11,11,0,0,0,24,4"
    fill-rule="evenodd"
  />
</svg>
